<?xml version="1.0" standalone="no"?>
<!DOCTYPE svg PUBLIC "-//W3C//DTD SVG 20010904//EN"
 "http://www.w3.org/TR/2001/REC-SVG-20010904/DTD/svg10.dtd">
<svg version="1.0" xmlns="http://www.w3.org/2000/svg"
 width="353.000000pt" height="513.000000pt" viewBox="0 0 353.000000 513.000000"
 preserveAspectRatio="xMidYMid meet">

<g transform="translate(0.000000,513.000000) scale(0.100000,-0.100000)"
fill="#000000" stroke="none">
<path d="M1690 4231 c-99 -14 -212 -62 -280 -119 -34 -29 -35 -32 -38 -111 -5
-98 8 -135 50 -150 20 -7 150 -11 348 -11 198 0 328 4 348 11 42 15 55 52 50
150 -3 79 -4 82 -38 111 -106 90 -288 139 -440 119z"/>
<path d="M380 1915 c-192 -331 -299 -569 -342 -759 -17 -76 -21 -129 -22 -318
-1 -220 0 -228 20 -249 19 -19 66 -27 420 -75 220 -29 407 -54 417 -54 16 0
17 16 17 203 1 156 4 211 16 242 27 72 35 67 -146 93 -135 19 -172 28 -201 48
-65 45 -63 30 -69 564 l-5 485 -105 -180z"/>
<path d="M3050 1617 c0 -453 -1 -480 -19 -515 -34 -64 -67 -78 -251 -104 -181
-26 -173 -21 -146 -93 12 -31 15 -86 16 -242 0 -187 1 -203 18 -203 9 0 196
25 416 54 354 48 401 56 420 75 20 21 21 29 20 249 -1 189 -5 242 -22 318 -42
188 -139 404 -322 724 -62 107 -116 199 -121 205 -5 5 -9 -186 -9 -468z"/>
<path d="M1734 1908 c-43 -20 -44 -37 -44 -543 l0 -485 -82 0 -83 0 3 -280 3
-280 -321 0 -322 0 4 -135 c4 -194 -20 -180 318 -180 338 0 314 -14 318 180
l4 135 79 0 79 0 0 -125 c0 -71 5 -135 11 -149 26 -55 112 -55 138 0 6 14 11
78 11 149 l0 125 79 0 79 0 4 -135 c4 -194 -20 -180 318 -180 338 0 314 -14
318 180 l4 135 -322 0 -321 0 3 280 3 280 -82 0 -83 0 0 485 c0 333 -3 492
-11 508 -11 24 -48 48 -72 46 -7 0 -22 -5 -33 -11z"/>
</g>
</svg>
